<svg id="a91962b1-4057-4004-8a06-70c38cfa8488" data-name="Layer 1" xmlns="http://www.w3.org/2000/svg" xmlns:xlink="http://www.w3.org/1999/xlink" viewBox="0 0 326 326"><defs><style>.a33c49f9-975c-4ef0-b412-585a42f58c19{fill:none;}.b9933fdd-ce85-4c02-a299-43871ff97b48{clip-path:url(#a4614d5d-f34b-4062-adaa-cea3e2c505b4);}.ba86f4cc-eb7d-4eb9-b9f3-d20e5d144d5c{fill:#6bcdea;}.aa13fb5b-3aef-4a25-8383-3defbbcc932f{fill:#fff;}</style><clipPath id="a4614d5d-f34b-4062-adaa-cea3e2c505b4"><rect class="a33c49f9-975c-4ef0-b412-585a42f58c19" width="326" height="326"/></clipPath></defs><title>Tile</title><g class="b9933fdd-ce85-4c02-a299-43871ff97b48"><rect class="ba86f4cc-eb7d-4eb9-b9f3-d20e5d144d5c" width="326" height="326"/><path class="aa13fb5b-3aef-4a25-8383-3defbbcc932f" d="M163,264.949A104.036,104.036,0,1,1,267.036,160.913,104.154,104.154,0,0,1,163,264.949Zm0-199.072a95.036,95.036,0,1,0,95.036,95.036A95.144,95.144,0,0,0,163,65.877Z"/><path class="aa13fb5b-3aef-4a25-8383-3defbbcc932f" d="M163,115.873A118.094,118.094,0,0,1,45.04-2.087,118.094,118.094,0,0,1,163-120.048,118.094,118.094,0,0,1,280.961-2.087,118.094,118.094,0,0,1,163,115.873Zm0-226.921A109.084,109.084,0,0,0,54.04-2.087,109.083,109.083,0,0,0,163,106.873,109.084,109.084,0,0,0,271.961-2.087,109.085,109.085,0,0,0,163-111.048Z"/><path class="aa13fb5b-3aef-4a25-8383-3defbbcc932f" d="M326,278.873a117.961,117.961,0,1,1,117.961-117.96A118.094,118.094,0,0,1,326,278.873Zm0-226.921A108.961,108.961,0,1,0,434.961,160.913,109.084,109.084,0,0,0,326,51.952Z"/><path class="aa13fb5b-3aef-4a25-8383-3defbbcc932f" d="M163,441.873a117.961,117.961,0,1,1,117.961-117.96A118.094,118.094,0,0,1,163,441.873Zm0-226.921A108.961,108.961,0,1,0,271.961,323.913,109.084,109.084,0,0,0,163,214.952Z"/><path class="aa13fb5b-3aef-4a25-8383-3defbbcc932f" d="M0,278.873A117.961,117.961,0,0,1,0,42.952,118.094,118.094,0,0,1,117.961,160.913,118.094,118.094,0,0,1,0,278.873ZM0,51.952A108.961,108.961,0,0,0,0,269.873a109.085,109.085,0,0,0,108.961-108.96A109.085,109.085,0,0,0,0,51.952Z"/><path class="aa13fb5b-3aef-4a25-8383-3defbbcc932f" d="M170.784,140.188c0,4.334-3.513,9.946-7.848,9.946s-7.847-5.612-7.847-9.946,3.513-7.148,7.847-7.148S170.784,135.854,170.784,140.188Z"/><path class="aa13fb5b-3aef-4a25-8383-3defbbcc932f" d="M150.337,146.687c4.079,1.464,8.174,6.667,6.71,10.746s-7.933,5.49-12.013,4.026-5.54-5.722-4.076-9.8S146.257,145.223,150.337,146.687Z"/><path class="aa13fb5b-3aef-4a25-8383-3defbbcc932f" d="M180.85,161.371c-4.039,1.572-10.543.334-12.116-3.7s2.383-9.349,6.422-10.922,7.935.681,9.508,4.719S184.889,159.8,180.85,161.371Z"/><rect class="aa13fb5b-3aef-4a25-8383-3defbbcc932f" x="160.508" y="158.584" width="4.985" height="22.254" rx="2.492"/></g></svg>