{
    "asset" : {
        "generator" : "Khronos glTF Blender I/O v1.2.75",
        "version" : "2.0"
    },
    "scene" : 0,
    "scenes" : [
        {
            "name" : "Scene",
            "nodes" : [
                0,
                1,
                2,
                5
            ]
        }
    ],
    "nodes" : [
        {
            "mesh" : 0,
            "name" : "Ring",
            "rotation" : [
                0.07312975078821182,
                0.06129046157002449,
                -0.6725982427597046,
                0.7338303923606873
            ],
            "translation" : [
                0,
                0.012482900172472,
                0
            ]
        },
        {
            "name" : "Point",
            "translation" : [
                0.4600996971130371,
                0.6307563781738281,
                -1.3847742080688477
            ]
        },
        {
            "name" : "Area",
            "rotation" : [
                -0.1579194813966751,
                -0.029940316453576088,
                0.18385209143161774,
                0.9697234034538269
            ],
            "translation" : [
                -1.1720387935638428,
                0.7067211866378784,
                -0.9054937362670898
            ]
        },
        {
            "mesh" : 1,
            "name" : "Backdrop",
            "rotation" : [
                0,
                0.8004467487335205,
                0,
                0.5994038581848145
            ],
            "scale" : [
                2.801065444946289,
                2.80106520652771,
                2.801065444946289
            ]
        },
        {
            "name" : "Camera",
            "rotation" : [
                0.11875759065151215,
                -0.7904790043830872,
                0.5785421133041382,
                0.1622607558965683
            ],
            "translation" : [
                -0.07437288016080856,
                0.06579883396625519,
                -0.17435431480407715
            ]
        },
        {
            "children" : [
                3,
                4
            ],
            "name" : "Empty"
        }
    ],
    "animations" : [
        {
            "channels" : [
                {
                    "sampler" : 0,
                    "target" : {
                        "node" : 5,
                        "path" : "rotation"
                    }
                }
            ],
            "name" : "EmptyAction",
            "samplers" : [
                {
                    "input" : 7,
                    "interpolation" : "LINEAR",
                    "output" : 8
                }
            ]
        }
    ],
    "materials" : [
        {
            "doubleSided" : true,
            "emissiveFactor" : [
                0,
                0,
                0
            ],
            "name" : "Silver",
            "pbrMetallicRoughness" : {
                "baseColorFactor" : [
                    0.800000011920929,
                    0.800000011920929,
                    0.800000011920929,
                    1
                ],
                "metallicFactor" : 0.9381818175315857,
                "roughnessFactor" : 0.22727271914482117
            }
        },
        {
            "doubleSided" : true,
            "emissiveFactor" : [
                0,
                0,
                0
            ],
            "name" : "Backdrop",
            "pbrMetallicRoughness" : {
                "metallicFactor" : 0,
                "roughnessFactor" : 0.3909091055393219
            }
        }
    ],
    "meshes" : [
        {
            "name" : "Plane.001",
            "primitives" : [
                {
                    "attributes" : {
                        "POSITION" : 0,
                        "NORMAL" : 1
                    },
                    "indices" : 2,
                    "material" : 0
                }
            ]
        },
        {
            "name" : "Plane",
            "primitives" : [
                {
                    "attributes" : {
                        "POSITION" : 3,
                        "NORMAL" : 4,
                        "TEXCOORD_0" : 5
                    },
                    "indices" : 6,
                    "material" : 1
                }
            ]
        }
    ],
    "accessors" : [
        {
            "bufferView" : 0,
            "componentType" : 5126,
            "count" : 10108,
            "max" : [
                0.018810149282217026,
                0.05217284709215164,
                0.052174098789691925
            ],
            "min" : [
                -0.025303255766630173,
                -0.05137652903795242,
                -0.05007630214095116
            ],
            "type" : "VEC3"
        },
        {
            "bufferView" : 1,
            "componentType" : 5126,
            "count" : 10108,
            "type" : "VEC3"
        },
        {
            "bufferView" : 2,
            "componentType" : 5123,
            "count" : 60636,
            "type" : "SCALAR"
        },
        {
            "bufferView" : 3,
            "componentType" : 5126,
            "count" : 6,
            "max" : [
                1,
                0.7539811134338379,
                1
            ],
            "min" : [
                -1,
                0,
                -1
            ],
            "type" : "VEC3"
        },
        {
            "bufferView" : 4,
            "componentType" : 5126,
            "count" : 6,
            "type" : "VEC3"
        },
        {
            "bufferView" : 5,
            "componentType" : 5126,
            "count" : 6,
            "type" : "VEC2"
        },
        {
            "bufferView" : 6,
            "componentType" : 5123,
            "count" : 12,
            "type" : "SCALAR"
        },
        {
            "bufferView" : 7,
            "componentType" : 5126,
            "count" : 120,
            "max" : [
                5
            ],
            "min" : [
                0.041666666666666664
            ],
            "type" : "SCALAR"
        },
        {
            "bufferView" : 8,
            "componentType" : 5126,
            "count" : 120,
            "type" : "VEC4"
        }
    ],
    "bufferViews" : [
        {
            "buffer" : 0,
            "byteLength" : 121296,
            "byteOffset" : 0
        },
        {
            "buffer" : 0,
            "byteLength" : 121296,
            "byteOffset" : 121296
        },
        {
            "buffer" : 0,
            "byteLength" : 121272,
            "byteOffset" : 242592
        },
        {
            "buffer" : 0,
            "byteLength" : 72,
            "byteOffset" : 363864
        },
        {
            "buffer" : 0,
            "byteLength" : 72,
            "byteOffset" : 363936
        },
        {
            "buffer" : 0,
            "byteLength" : 48,
            "byteOffset" : 364008
        },
        {
            "buffer" : 0,
            "byteLength" : 24,
            "byteOffset" : 364056
        },
        {
            "buffer" : 0,
            "byteLength" : 480,
            "byteOffset" : 364080
        },
        {
            "buffer" : 0,
            "byteLength" : 1920,
            "byteOffset" : 364560
        }
    ],
    "buffers" : [
        {
            "byteLength" : 366480,
            "uri" : "data:application/octet-stream;base64,"
        }
    ]
}
