<?xml version="1.0" encoding="utf-8"?>
<!-- Generator: Adobe Illustrator 23.0.3, SVG Export Plug-In . SVG Version: 6.00 Build 0)  -->
<svg version="1.1" id="Layer_1" xmlns="http://www.w3.org/2000/svg" xmlns:xlink="http://www.w3.org/1999/xlink" x="0px" y="0px"
	 viewBox="0 0 250 250" style="enable-background:new 0 0 250 250;" xml:space="preserve">
<style type="text/css">
	.st0{fill:#CC553E;}
	.st1{fill:#FFF971;}
</style>
<g>
	<rect class="st0" width="250" height="250"/>
</g>
<g>
	<g>
		<path class="st1" d="M130.2,86.8c0-15.2,20.2-27.5-4.5-27.5c-23,0-4.5,12.3-4.5,27.5s2,23,4.5,23
			C128.2,109.7,130.2,101.9,130.2,86.8z"/>
		<path class="st1" d="M133.3,93c-3-10,4-19,5-20s9.3,2.5,3,7C134.3,85,133.9,94.9,133.3,93z"/>
		<path class="st1" d="M118.9,93c3-10-4-19-5-20s-9.3,2.5-3,7C117.9,85,118.3,94.9,118.9,93z"/>
	</g>
	<g>
		<path class="st1" d="M155.4,102.4c10.7-10.7,33.7-5.2,16.2-22.6c-16.2-16.2-11.9,5.5-22.6,16.2c-10.7,10.7-14.8,17.7-13,19.4
			C137.8,117.2,144.7,113.1,155.4,102.4z"/>
		<path class="st1" d="M153.2,108.9c4.9-9.2,16.3-10.6,17.7-10.6s4.8,8.3-2.8,7.1C159.6,104,152.2,110.7,153.2,108.9z"/>
		<path class="st1" d="M143,98.8c9.2-4.9,10.6-16.3,10.6-17.7c0-1.4-8.3-4.8-7.1,2.8C148,92.4,141.3,99.7,143,98.8z"/>
	</g>
	<g>
		<path class="st1" d="M162.2,131.2c15.2,0,27.5,20.2,27.5-4.5c0-23-12.3-4.5-27.5-4.5c-15.2,0-23,2-23,4.5
			C139.3,129.2,147.1,131.2,162.2,131.2z"/>
		<path class="st1" d="M156,134.3c10-3,19,4,20,5s-2.5,9.3-7,3C164,135.3,154.1,134.9,156,134.3z"/>
		<path class="st1" d="M156,119.9c10,3,19-4,20-5s-2.5-9.3-7-3C164,118.9,154.1,119.3,156,119.9z"/>
	</g>
	<g>
		<path class="st1" d="M146.6,156.4c10.7,10.7,5.2,33.7,22.6,16.2c16.2-16.2-5.5-11.9-16.2-22.6c-10.7-10.7-17.7-14.8-19.4-13
			C131.8,138.8,135.9,145.7,146.6,156.4z"/>
		<path class="st1" d="M140.1,154.2c9.2,4.9,10.6,16.3,10.6,17.7s-8.3,4.8-7.1-2.8C145,160.6,138.3,153.2,140.1,154.2z"/>
		<path class="st1" d="M150.2,144c4.9,9.2,16.3,10.6,17.7,10.6s4.8-8.3-2.8-7.1C156.6,149,149.3,142.3,150.2,144z"/>
	</g>
	<g>
		<path class="st1" d="M117.8,163.2c0,15.2-20.2,27.5,4.5,27.5c23,0,4.5-12.3,4.5-27.5c0-15.2-2-23-4.5-23S117.8,148.1,117.8,163.2z
			"/>
		<path class="st1" d="M114.7,157c3,10-4,19-5,20s-9.3-2.5-3-7C113.7,165,114.1,155.1,114.7,157z"/>
		<path class="st1" d="M129.1,157c-3,10,4,19,5,20s9.3-2.5,3-7C130.1,165,129.7,155.1,129.1,157z"/>
	</g>
	<g>
		<path class="st1" d="M92.6,147.6c-10.7,10.7-33.7,5.2-16.2,22.6c16.2,16.2,11.9-5.5,22.6-16.2c10.7-10.7,14.8-17.7,13-19.4
			S103.3,136.9,92.6,147.6z"/>
		<path class="st1" d="M94.8,141.1c-4.9,9.2-16.3,10.6-17.7,10.6c-1.4,0-4.8-8.3,2.8-7.1C88.4,146,95.8,139.3,94.8,141.1z"/>
		<path class="st1" d="M105,151.2c-9.2,4.9-10.6,16.3-10.6,17.7s8.3,4.8,7.1-2.8C100,157.6,106.7,150.3,105,151.2z"/>
	</g>
	<g>
		<path class="st1" d="M85.8,118.8c-15.2,0-27.5-20.2-27.5,4.5c0,23,12.3,4.5,27.5,4.5s23-2,23-4.5S100.9,118.8,85.8,118.8z"/>
		<path class="st1" d="M92,115.7c-10,3-19-4-20-5s2.5-9.3,7-3C84,114.7,93.9,115.1,92,115.7z"/>
		<path class="st1" d="M92,130.1c-10-3-19,4-20,5s2.5,9.3,7,3C84,131.1,93.9,130.7,92,130.1z"/>
	</g>
	<g>
		<path class="st1" d="M101.4,93.6c-10.7-10.7-5.2-33.7-22.6-16.2C62.5,93.6,84.2,89.2,95,99.9s17.7,14.8,19.4,13
			S112.1,104.3,101.4,93.6z"/>
		<path class="st1" d="M107.9,95.8c-9.2-4.9-10.6-16.3-10.6-17.7c0-1.4,8.3-4.8,7.1,2.8C103,89.4,109.7,96.8,107.9,95.8z"/>
		<path class="st1" d="M97.8,106c-4.9-9.2-16.3-10.6-17.7-10.6c-1.4,0-4.8,8.3,2.8,7.1C91.4,101,98.7,107.7,97.8,106z"/>
	</g>
	<circle class="st1" cx="124" cy="125" r="7"/>
</g>
<g>
	<path class="st1" d="M0,243c3.9,0,7,3.1,7,7H0L0,243z"/>
	<g>
		<path class="st1" d="M19.2,227.2l31.4-28.6c0.2-0.2,0.5-0.2,0.7,0c0.2,0.2,0.2,0.5,0,0.7l-28.6,31.4c-0.9,1-2.5,1.1-3.6,0.2
			c-1-0.9-1.1-2.5-0.2-3.6C19.1,227.3,19.2,227.3,19.2,227.2z"/>
	</g>
</g>
<g>
	<path class="st1" d="M243,250c0-3.9,3.1-7,7-7v7H243z"/>
	<g>
		<path class="st1" d="M227.2,230.8l-28.6-31.4c-0.2-0.2-0.2-0.5,0-0.7c0.2-0.2,0.5-0.2,0.7,0l31.4,28.6c1,0.9,1.1,2.5,0.2,3.6
			c-0.9,1-2.5,1.1-3.6,0.2C227.3,230.9,227.3,230.8,227.2,230.8z"/>
	</g>
</g>
<g>
	<path class="st1" d="M250,7c-3.9,0-7-3.1-7-7h7V7z"/>
	<g>
		<path class="st1" d="M230.8,22.8l-31.4,28.6c-0.2,0.2-0.5,0.2-0.7,0c-0.2-0.2-0.2-0.5,0-0.7l28.6-31.4c0.9-1,2.5-1.1,3.6-0.2
			s1.1,2.5,0.2,3.6C230.9,22.7,230.8,22.7,230.8,22.8z"/>
	</g>
</g>
<g>
	<path class="st1" d="M7,0c0,3.9-3.1,7-7,7V0L7,0z"/>
	<g>
		<path class="st1" d="M22.8,19.2l28.6,31.4c0.2,0.2,0.2,0.5,0,0.7c-0.2,0.2-0.5,0.2-0.7,0L19.2,22.8c-1-0.9-1.1-2.5-0.2-3.6
			c0.9-1,2.5-1.1,3.6-0.2C22.7,19.1,22.7,19.2,22.8,19.2z"/>
	</g>
</g>
</svg>
